<svg width="182" height="110" viewBox="0 0 182 110" fill="none" xmlns="http://www.w3.org/2000/svg">
<path fill-rule="evenodd" clip-rule="evenodd" d="M155.278 47.7903C156.423 48.476 156.138 48.4399 158.257 47.3165C160.117 46.3433 159.136 46.3122 161.125 46.9942C162.88 47.5807 165.695 48.0387 167.073 48.53C166.84 49.589 163.584 53.5987 162.903 55.1204C163.282 55.2159 163.592 55.294 164.005 55.3981C164.66 55.5634 164.505 55.597 165.15 55.0749C166.511 53.9035 170.826 50.1972 171.739 49.6348C173.16 49.9574 176.896 50.9715 178.058 50.7238C178.609 50.5747 179.505 50.2236 179.195 49.5684C178.386 47.9944 175.141 47.6448 172.988 47.1743C172.128 46.9574 172.343 46.9754 171.963 46.1589C171.568 45.2662 168.894 38.788 168.523 38.5141C168.359 38.4371 167.18 38.1755 166.973 38.1233C166.956 38.7678 167.043 39.439 167.128 40.109L167.566 44.0041C167.669 44.607 167.729 45.3787 167.763 45.9646C166.773 45.679 165.766 45.461 164.733 45.2005C159.636 43.9152 160.798 45.2537 159.18 42.9713C158.295 41.7022 158.131 40.904 156.804 41.3625C157.588 44.0471 157.182 45.9275 155.278 47.7903ZM155.607 44.1968C156.141 44.2596 156.114 45.0819 155.502 45.0356L154.651 44.9291C154.108 44.9005 154.108 44.0352 154.719 44.0811L155.607 44.1968ZM68.6682 79.9499C68.2543 80.4225 67.6003 79.8244 67.9623 79.4115L68.2814 79.0231C68.6858 78.5847 69.34 79.1819 68.9441 79.5867L68.6682 79.9499ZM70.658 77.6035C70.2531 78.0421 69.5903 77.4784 69.9949 77.0397L70.5638 76.39C70.9338 75.9425 71.5889 76.5396 71.2267 76.9533L70.658 77.6035ZM72.9663 75.0135C72.605 75.4266 71.8986 74.8885 72.3037 74.4494L72.9059 73.8086C73.2684 73.3954 73.9394 73.925 73.5607 74.4065L72.9663 75.0135ZM75.361 72.5173C74.9215 72.9472 74.3193 72.2903 74.7069 71.9196L75.3442 71.2872C75.7836 70.8572 76.3517 71.5055 75.9637 71.8761L75.361 72.5173ZM77.8155 70.0718C77.3857 70.4685 76.7743 69.8458 77.2047 69.4498L77.8333 68.8513C78.2293 68.4462 78.8747 69.0782 78.4448 69.4736L77.8155 70.0718ZM80.3648 67.6869C79.9775 68.0577 79.323 67.46 79.7539 67.064L80.417 66.4743C80.8041 66.1042 81.4584 66.7011 80.985 67.1229L80.3648 67.6869ZM82.9574 65.421C82.5015 65.7741 81.9755 65.1015 82.3982 64.7392L83.0526 64.1838C83.509 63.83 84.0678 64.5117 83.6118 64.8656L82.9574 65.421ZM85.6447 63.2143C85.1887 63.5682 84.664 62.8951 85.1195 62.5419L85.8089 61.9949C86.265 61.6411 86.781 62.3481 86.3337 62.6676L85.6447 63.2143ZM88.2887 61.1779C87.9358 61.2693 87.6261 60.9023 87.7468 60.5727C87.7641 60.3605 88.0049 60.1332 88.255 60.1601L88.6165 59.8905C89.0646 59.5711 89.6236 60.2533 89.1326 60.5972L89.0379 60.6818L89.1667 60.75C89.666 61.0929 89.1234 61.7849 88.6589 61.4516L88.2887 61.1779ZM91.2689 59.1173C90.752 59.4197 90.3129 58.6963 90.7961 58.385L91.5021 57.9142C92.0268 57.578 92.4571 58.3358 91.9844 58.6123L91.2689 59.1173ZM94.205 57.2265C93.7231 57.5377 93.2154 56.7966 93.7318 56.4941L94.4724 56.032C94.9549 55.7217 95.4274 56.4536 94.9453 56.7639L94.205 57.2265ZM97.1852 55.4549C96.6421 55.7141 96.2556 54.9316 96.7547 54.6975L97.4871 54.269C98.0381 53.9753 98.4254 54.7576 97.9513 55.035L97.1852 55.4549ZM100.251 53.7767C99.7424 54.0447 99.3119 53.2876 99.8201 53.0192L100.621 52.6086C101.129 52.3401 101.551 53.1311 101.008 53.3908L100.251 53.7767ZM103.351 52.2507C102.886 52.4941 102.456 51.7368 102.998 51.4774L103.791 51.1004C104.368 50.8489 104.669 51.6823 104.143 51.8743L103.351 52.2507ZM106.572 50.8282C106.003 51.0456 105.694 50.2469 106.219 50.0547L107.003 49.7115C107.571 49.4948 107.881 50.2937 107.356 50.4855L106.572 50.8282ZM109.792 49.5494C109.302 49.7504 108.914 48.968 109.483 48.7506C109.767 48.6422 110.051 48.533 110.326 48.4584C110.817 48.2583 111.204 49.0405 110.636 49.2576C110.352 49.3667 110.076 49.4411 109.792 49.5494ZM113.09 48.3987C112.53 48.5822 112.306 47.7322 112.824 47.5746L113.659 47.3164C114.219 47.1337 114.477 47.9915 113.926 48.1406L113.09 48.3987ZM116.422 47.4005C115.906 47.5592 115.605 46.7263 116.199 46.5512L117.06 46.3364C117.577 46.1777 117.878 47.0106 117.284 47.1854L116.422 47.4005ZM119.833 46.5305C119.212 46.6621 119.067 45.7966 119.609 45.681L120.47 45.4654C121.047 45.3587 121.228 46.233 120.685 46.3485L119.833 46.5305ZM123.242 45.8045C122.699 45.9195 122.476 45.0701 123.062 44.9293C123.363 44.8971 123.639 44.8224 123.94 44.7903C124.482 44.6744 124.671 45.5152 124.095 45.6225C123.819 45.6967 123.518 45.7293 123.242 45.8045ZM126.694 45.1965C126.092 45.2616 126.015 44.4125 126.549 44.3306L127.427 44.192C128.03 44.127 128.098 45.0092 127.539 45.049L126.694 45.1965ZM130.147 44.7334C129.579 44.8065 129.468 43.9493 130.036 43.876L130.94 43.7801C131.474 43.6982 131.62 44.5638 131.017 44.6288L130.147 44.7334ZM133.643 44.3898C133.083 44.4283 132.972 43.571 133.566 43.5408C133.867 43.5086 134.169 43.4766 134.461 43.4784C134.995 43.3969 135.107 44.2539 134.504 44.3185C134.203 44.3503 133.945 44.3571 133.643 44.3898ZM137.139 44.1899C136.518 44.1772 136.553 43.3214 137.105 43.3163L137.991 43.2867C138.577 43.2906 138.577 44.1551 137.992 44.1527L137.139 44.1899ZM140.643 44.0995C140.058 44.0967 140.058 43.2317 140.643 43.235L141.521 43.2399C142.072 43.2349 142.106 44.1085 141.521 44.1048L140.643 44.0995ZM144.147 44.1545C143.595 44.1591 143.527 43.2773 144.156 43.2559L145.06 43.3037C145.672 43.3492 145.559 44.2224 145.024 44.1595L144.147 44.1545ZM147.633 44.2765C147.057 44.2393 147.126 43.3918 147.703 43.4291L148.564 43.5024C149.175 43.548 149.105 44.3959 148.529 44.3587L147.633 44.2765ZM151.155 44.5519C150.579 44.5147 150.612 43.6582 151.225 43.7045L152.086 43.778C152.663 43.8153 152.619 44.7054 152.008 44.6593L151.155 44.5519ZM28.1385 48.4243C26.9497 49.0619 27.2516 49.0295 25.1854 47.7877C23.3688 46.7168 24.3586 46.7145 22.3444 47.2882C20.5359 47.7691 17.7114 48.0661 16.3255 48.4739C16.523 49.5688 19.5606 53.7591 20.1538 55.3146C19.7661 55.3968 19.4649 55.4297 19.043 55.5033C18.3798 55.6603 18.5179 55.6951 17.9324 55.1152C16.6329 53.8859 12.4759 49.9178 11.6067 49.3021C10.1949 49.5226 6.38885 50.3656 5.23508 50.0027C4.69259 49.8297 3.83985 49.4347 4.18559 48.8003C5.05526 47.2534 8.31866 47.1028 10.4965 46.7513C11.3748 46.6127 11.1512 46.6279 11.5388 45.8244C11.9878 44.9288 14.9776 38.6528 15.3739 38.3923C15.5029 38.3172 16.7252 38.1204 16.9489 38.1049C16.8977 38.7409 16.8029 39.402 16.6733 40.0539L16.0513 43.9346C15.9047 44.5103 15.8182 45.2816 15.7846 45.8497C16.7832 45.6688 17.7817 45.4879 18.8147 45.3161C23.9813 44.3111 22.7498 45.5515 24.4718 43.3902C25.4369 42.192 25.6089 41.3704 26.9352 41.9206C26.0051 44.5696 26.331 46.4546 28.1385 48.4243ZM27.9936 44.8191C27.4339 44.858 27.4425 45.689 28.0619 45.701L28.9234 45.6302C29.4395 45.6161 29.4746 44.7595 28.8548 44.7474L27.9936 44.8191ZM113.058 85.6637C113.41 86.1499 114.065 85.5938 113.737 85.1508L113.462 84.7927C113.075 84.298 112.42 84.8549 112.748 85.2975L113.058 85.6637ZM111.156 83.2025C111.517 83.6537 112.197 83.1404 111.871 82.6974L111.32 81.982C110.958 81.5299 110.269 82.077 110.631 82.5289L111.156 83.2025ZM108.987 80.4921C109.314 80.9353 110.028 80.4308 109.676 79.9449L109.117 79.2632C108.747 78.846 108.032 79.3505 108.428 79.8111L108.987 80.4921ZM106.732 77.8325C107.128 78.2935 107.766 77.6613 107.387 77.2772L106.785 76.6204C106.388 76.1604 105.752 76.7925 106.13 77.176L106.732 77.8325ZM104.383 75.2577C104.788 75.6844 105.416 75.086 105.046 74.6681L104.436 74.0452C104.031 73.6194 103.376 74.175 103.781 74.6017L104.383 75.2577ZM101.983 72.7415C102.361 73.1257 103.015 72.5701 102.576 72.1347L101.966 71.5122C101.587 71.1283 100.933 71.684 101.337 72.111L101.983 72.7415ZM99.4514 70.3016C99.934 70.7114 100.468 70.0533 100.089 69.6694L99.4345 69.0716C98.9878 68.67 98.4192 69.3201 98.8322 69.7128L99.4514 70.3016ZM96.8954 67.9624C97.3512 68.33 97.8861 67.671 97.4639 67.313L96.8102 66.7154C96.3535 66.348 95.785 66.9977 96.2415 67.3655L96.8954 67.9624ZM94.2106 65.6991C94.6661 66.0663 95.235 65.4166 94.787 65.0156L94.116 64.4856C93.6944 64.1269 93.1006 64.7345 93.5471 65.1352L94.2106 65.6991ZM91.4991 63.5376C91.9982 63.8796 92.4716 63.1701 92.0073 62.836L91.3013 62.298C90.8364 61.9646 90.3288 62.6655 90.7933 62.9987L91.4991 63.5376ZM85.7839 59.5008C86.3265 59.8176 86.7054 59.0481 86.2578 58.7914L85.5006 58.3116C84.9583 57.9948 84.5794 58.7643 85.0271 59.021L85.7839 59.5008ZM82.8062 57.6679C83.2796 57.9676 83.7276 57.2156 83.2536 56.9161L82.4877 56.4706C81.9711 56.1957 81.5234 56.9486 82.0397 57.2227L82.8062 57.6679ZM79.7587 55.9628C80.2062 56.2199 80.7146 55.5192 80.1721 55.202L79.3981 54.7899C78.8123 54.4983 78.4935 55.3187 78.9847 55.5506L79.7587 55.9628ZM76.6513 54.3503C77.1766 54.5909 77.5211 53.8119 77.0308 53.5802L76.213 53.1939C75.6877 52.9534 75.308 53.7227 75.8333 53.9632L76.6513 54.3503ZM73.4668 52.898C73.9567 53.13 74.3706 52.3689 73.8198 52.0858C73.5529 51.9823 73.26 51.8365 72.9929 51.7334C72.503 51.5018 72.0893 52.2621 72.6401 52.5452C72.9071 52.6483 73.2084 52.7609 73.4668 52.898ZM70.2206 51.5386C70.7891 51.7538 71.0733 50.9247 70.5312 50.7518L69.7309 50.4415C69.1628 50.2263 68.8784 51.0562 69.4206 51.2287L70.2206 51.5386ZM66.9325 50.3489C67.4751 50.5215 67.7857 49.7348 67.2172 49.5195L66.3735 49.2349C65.8745 49.0371 65.5211 49.8492 66.1239 50.0727L66.9325 50.3489ZM63.6185 49.2609C64.1956 49.4422 64.3762 48.5869 63.86 48.4568L63.007 48.2055C62.431 48.0245 62.2155 48.8709 62.7663 49.0098L63.6185 49.2609ZM60.2265 48.3332C60.7772 48.4721 61.0273 47.6343 60.442 47.4867C60.1668 47.4173 59.8571 47.3392 59.5811 47.2697C59.0641 47.1393 58.7803 47.9685 59.3656 48.1161C59.6757 48.1943 59.9513 48.2638 60.2265 48.3332ZM56.7999 47.5414C57.4374 47.6298 57.541 46.7913 56.9817 46.686L56.1467 46.5116C55.5525 46.3975 55.406 47.2618 55.9658 47.3668L56.7999 47.5414ZM53.3824 46.8596C53.9417 46.9649 54.0886 46.1007 53.5292 45.9958L52.6508 45.8462C52.0918 45.741 51.9453 46.6052 52.5046 46.7105L53.3824 46.8596ZM49.9308 46.3138C50.4551 46.4103 50.6368 45.554 50.0338 45.4743C49.75 45.4389 49.4317 45.3944 49.1474 45.3593C48.6217 45.2629 48.4411 46.1185 49.0437 46.1981C49.3278 46.234 49.6116 46.2694 49.9308 46.3138ZM46.4431 45.9027C47.0543 45.9488 47.0551 45.084 46.5126 45.0556L45.626 44.9397C45.0406 44.9367 45.0056 45.7929 45.5476 45.8219L46.4431 45.9027ZM42.9222 45.6275C43.4991 45.6653 43.5773 44.7839 43.0003 44.7464L42.0967 44.6986C41.5539 44.6698 41.4843 45.5176 42.0616 45.5552L42.9222 45.6275ZM39.4527 45.4372C39.9865 45.4999 40.0651 44.6186 39.4535 44.5728L38.575 44.5674C37.9548 44.5557 38.0238 45.4381 38.5749 45.4328L39.4527 45.4372ZM35.9399 45.4172C36.5343 45.3863 36.4997 44.513 35.9063 44.5433L35.0273 44.5386C34.4421 44.5349 34.4766 45.4086 35.0622 45.4124L35.9399 45.4172ZM32.4105 45.4641C32.9957 45.4675 33.0045 44.5681 32.3756 44.5903L31.5231 44.6276C30.972 44.6329 30.9377 45.4893 31.5579 45.5014L32.4105 45.4641Z" fill="black"/>
<path d="M68.0078 79.9052C63.8693 84.3422 56.9245 95.6142 54.7186 103.836" stroke="url(#paint0_linear_1807_1942)" stroke-width="0.947531" stroke-linecap="round" stroke-dasharray="1.35 3.38"/>
<path d="M113.084 85.1116C117.118 89.6441 123.798 101.075 125.811 109.346" stroke="url(#paint1_linear_1807_1942)" stroke-width="0.947531" stroke-linecap="round" stroke-dasharray="1.35 3.38"/>
<defs>
<linearGradient id="paint0_linear_1807_1942" x1="68.1575" y1="79.5554" x2="56.4313" y2="99.9751" gradientUnits="userSpaceOnUse">
<stop/>
<stop offset="0.879123" stop-opacity="0"/>
</linearGradient>
<linearGradient id="paint1_linear_1807_1942" x1="98.8499" y1="63.1794" x2="122.579" y2="102.152" gradientUnits="userSpaceOnUse">
<stop/>
<stop offset="0.879123" stop-opacity="0"/>
</linearGradient>
</defs>
</svg>
