<svg width="110" height="110" viewBox="0 0 110 110" fill="none" xmlns="http://www.w3.org/2000/svg">
<path d="M7.58594 25.7734H101.652V83.4265H7.58594V25.7734Z" fill="white"/>
<path d="M7.58594 25.7734H101.652V33.3594H7.58594V25.7734ZM7.58594 39.4281H101.652V45.4969H7.58594V39.4281ZM7.58594 51.5656H101.652V57.6344H7.58594V51.5656Z" fill="#D22F27"/>
<path d="M7.58594 25.7734H56.1359V57.6344H7.58594V25.7734Z" fill="#1E50A0"/>
<path d="M7.2168 63.3125H101.282V69.3812H7.2168V63.3125Z" fill="#D22F27"/>
<path d="M13.6551 36.0133C15.1214 36.0133 16.3102 34.8246 16.3102 33.3582C16.3102 31.8918 15.1214 30.7031 13.6551 30.7031C12.1887 30.7031 11 31.8918 11 33.3582C11 34.8246 12.1887 36.0133 13.6551 36.0133Z" fill="white"/>
<path d="M25.7898 36.0133C27.2562 36.0133 28.4449 34.8246 28.4449 33.3582C28.4449 31.8918 27.2562 30.7031 25.7898 30.7031C24.3235 30.7031 23.1348 31.8918 23.1348 33.3582C23.1348 34.8246 24.3235 36.0133 25.7898 36.0133Z" fill="white"/>
<path d="M37.9266 36.0133C39.3929 36.0133 40.5816 34.8246 40.5816 33.3582C40.5816 31.8918 39.3929 30.7031 37.9266 30.7031C36.4602 30.7031 35.2715 31.8918 35.2715 33.3582C35.2715 34.8246 36.4602 36.0133 37.9266 36.0133Z" fill="white"/>
<path d="M50.0633 36.0133C51.5296 36.0133 52.7184 34.8246 52.7184 33.3582C52.7184 31.8918 51.5296 30.7031 50.0633 30.7031C48.5969 30.7031 47.4082 31.8918 47.4082 33.3582C47.4082 34.8246 48.5969 36.0133 50.0633 36.0133Z" fill="white"/>
<path d="M43.9949 42.0836C45.4613 42.0836 46.65 40.8949 46.65 39.4285C46.65 37.9622 45.4613 36.7734 43.9949 36.7734C42.5286 36.7734 41.3398 37.9622 41.3398 39.4285C41.3398 40.8949 42.5286 42.0836 43.9949 42.0836Z" fill="white"/>
<path d="M31.8621 42.0836C33.3285 42.0836 34.5172 40.8949 34.5172 39.4285C34.5172 37.9622 33.3285 36.7734 31.8621 36.7734C30.3957 36.7734 29.207 37.9622 29.207 39.4285C29.207 40.8949 30.3957 42.0836 31.8621 42.0836Z" fill="white"/>
<path d="M19.7215 42.0836C21.1878 42.0836 22.3766 40.8949 22.3766 39.4285C22.3766 37.9622 21.1878 36.7734 19.7215 36.7734C18.2551 36.7734 17.0664 37.9622 17.0664 39.4285C17.0664 40.8949 18.2551 42.0836 19.7215 42.0836Z" fill="white"/>
<path d="M13.6551 48.1617C15.1214 48.1617 16.3102 46.973 16.3102 45.5066C16.3102 44.0403 15.1214 42.8516 13.6551 42.8516C12.1887 42.8516 11 44.0403 11 45.5066C11 46.973 12.1887 48.1617 13.6551 48.1617Z" fill="white"/>
<path d="M25.7898 48.1617C27.2562 48.1617 28.4449 46.973 28.4449 45.5066C28.4449 44.0403 27.2562 42.8516 25.7898 42.8516C24.3235 42.8516 23.1348 44.0403 23.1348 45.5066C23.1348 46.973 24.3235 48.1617 25.7898 48.1617Z" fill="white"/>
<path d="M37.9266 48.1617C39.3929 48.1617 40.5816 46.973 40.5816 45.5066C40.5816 44.0403 39.3929 42.8516 37.9266 42.8516C36.4602 42.8516 35.2715 44.0403 35.2715 45.5066C35.2715 46.973 36.4602 48.1617 37.9266 48.1617Z" fill="white"/>
<path d="M50.0633 48.1617C51.5296 48.1617 52.7184 46.973 52.7184 45.5066C52.7184 44.0403 51.5296 42.8516 50.0633 42.8516C48.5969 42.8516 47.4082 44.0403 47.4082 45.5066C47.4082 46.973 48.5969 48.1617 50.0633 48.1617Z" fill="white"/>
<path d="M43.9949 54.2242C45.4613 54.2242 46.65 53.0355 46.65 51.5691C46.65 50.1028 45.4613 48.9141 43.9949 48.9141C42.5286 48.9141 41.3398 50.1028 41.3398 51.5691C41.3398 53.0355 42.5286 54.2242 43.9949 54.2242Z" fill="white"/>
<path d="M31.8621 54.2242C33.3285 54.2242 34.5172 53.0355 34.5172 51.5691C34.5172 50.1028 33.3285 48.9141 31.8621 48.9141C30.3957 48.9141 29.207 50.1028 29.207 51.5691C29.207 53.0355 30.3957 54.2242 31.8621 54.2242Z" fill="white"/>
<path d="M19.7215 54.2242C21.1878 54.2242 22.3766 53.0355 22.3766 51.5691C22.3766 50.1028 21.1878 48.9141 19.7215 48.9141C18.2551 48.9141 17.0664 50.1028 17.0664 51.5691C17.0664 53.0355 18.2551 54.2242 19.7215 54.2242Z" fill="white"/>
<path d="M7.58594 75.8516H101.652V83.4375H7.58594V75.8516Z" fill="#D22F27"/>
<path d="M7.58594 25.7734H101.652V83.4265H7.58594V25.7734Z" stroke="black" stroke-width="3.03437" stroke-linecap="round" stroke-linejoin="round"/>
</svg>
