<svg width="191" height="50" viewBox="0 0 191 50" fill="none" xmlns="http://www.w3.org/2000/svg">
<path fill-rule="evenodd" clip-rule="evenodd" d="M164.224 10.075C165.477 10.766 165.166 10.7323 167.455 9.55218C169.463 8.52946 168.396 8.50937 170.566 9.18648C172.48 9.7682 175.545 10.2052 177.048 10.6935C176.808 11.7849 173.322 15.9453 172.602 17.5176C173.014 17.6113 173.352 17.6878 173.801 17.7898C174.516 17.9519 174.348 17.9882 175.041 17.4439C176.506 16.2235 181.146 12.3621 182.131 11.773C183.679 12.0875 187.751 13.0851 189.011 12.8165C189.608 12.6566 190.576 12.2849 190.231 11.6152C189.332 10.0071 185.802 9.68677 183.457 9.22905C182.52 9.01645 182.754 9.03236 182.331 8.19769C181.89 7.2848 178.902 0.658312 178.496 0.381185C178.317 0.304048 177.033 0.0493245 176.808 -0.00181102C176.797 0.660824 176.9 1.34966 177.001 2.03733L177.526 6.03567C177.645 6.65416 177.72 7.44661 177.765 8.04842C176.686 7.76672 175.589 7.5548 174.463 7.29941C168.909 6.0396 170.189 7.40137 168.402 5.07481C167.424 3.78106 167.236 2.96258 165.8 3.44978C166.686 6.19978 166.268 8.13743 164.224 10.075ZM164.535 6.37744C165.116 6.43557 165.098 7.28102 164.433 7.24085L163.507 7.14157C162.916 7.11867 162.905 6.22927 163.57 6.26916L164.535 6.37744ZM70.5352 44.1709C70.0914 44.6616 69.3733 44.0548 69.7614 43.626L70.1031 43.2229C70.5369 42.7674 71.2553 43.3735 70.8303 43.7943L70.5352 44.1709ZM72.6672 41.7352C72.2328 42.191 71.5056 41.6195 71.9396 41.1637L72.5494 40.4891C72.9458 40.0247 73.665 40.6306 73.2767 41.0601L72.6672 41.7352ZM75.1421 39.0454C74.7549 39.4744 73.9805 38.9297 74.415 38.4736L75.0611 37.8076C75.4498 37.3786 76.1855 37.9149 75.7802 38.4143L75.1421 39.0454ZM77.7121 36.4508C77.2401 36.8981 76.5774 36.2301 76.9939 35.8444L77.6782 35.1867C78.1502 34.7395 78.7757 35.399 78.3588 35.7846L77.7121 36.4508ZM80.3477 33.9078C79.8858 34.3207 79.2137 33.688 79.6763 33.2757L80.3516 32.6531C80.7767 32.2319 81.4859 32.8738 81.0239 33.2853L80.3477 33.9078ZM83.0872 31.4258C82.6711 31.8116 81.9525 31.2051 82.4155 30.7929L83.1285 30.1788C83.5443 29.7938 84.2628 30.3994 83.7539 30.8387L83.0872 31.4258ZM85.8751 29.0656C85.3843 29.434 84.8043 28.749 85.2589 28.3715L85.9628 27.7928C86.4542 27.4237 87.07 28.1177 86.579 28.4869L85.8751 29.0656ZM88.7667 26.7652C88.2757 27.1344 87.6972 26.4488 88.1876 26.0803L88.9297 25.5099C89.4206 25.1407 89.9902 25.8612 89.5083 26.195L88.7667 26.7652ZM91.6134 24.6403C91.2312 24.7385 90.8901 24.365 91.017 24.0248C91.033 23.8065 91.2918 23.5699 91.5639 23.5946L91.9532 23.3131C92.436 22.9795 93.052 23.6739 92.5228 24.0332L92.4211 24.1213L92.5619 24.1899C93.1087 24.5364 92.528 25.2542 92.0191 24.9172L91.6134 24.6403ZM94.8251 22.4865C94.2673 22.8036 93.7811 22.0652 94.3021 21.7395L95.0632 21.247C95.6289 20.8952 96.1061 21.669 95.596 21.9589L94.8251 22.4865ZM97.991 20.5078C97.4713 20.8334 96.9103 20.0777 97.4676 19.7606L98.2663 19.2767C98.7866 18.9521 99.3093 19.6986 98.7894 20.0234L97.991 20.5078ZM101.206 18.651C100.62 18.9239 100.19 18.1243 100.729 17.8776L101.519 17.4285C102.114 17.1199 102.545 17.9194 102.033 18.2102L101.206 18.651ZM104.515 16.8892C103.967 17.1708 103.489 16.3978 104.038 16.1158L104.904 15.6841C105.452 15.4021 105.92 16.21 105.334 16.4835L104.515 16.8892ZM107.865 15.2835C107.362 15.5393 106.885 14.766 107.471 14.4929L108.327 14.0958C108.951 13.8304 109.289 14.6833 108.72 14.887L107.865 15.2835ZM111.345 13.7826C110.731 14.013 110.385 13.1957 110.953 12.9918L111.8 12.6297C112.414 12.4001 112.761 13.2175 112.193 13.421L111.345 13.7826ZM114.828 12.4295C114.298 12.642 113.866 11.8425 114.482 11.6122C114.789 11.4974 115.096 11.3817 115.395 11.3017C115.925 11.0902 116.356 11.8895 115.741 12.1195C115.434 12.2351 115.135 12.3148 114.828 12.4295ZM118.397 11.2072C117.791 11.4025 117.537 10.5316 118.097 10.3633L119.001 10.0878C119.607 9.89339 119.898 10.7719 119.301 10.9318L118.397 11.2072ZM122.004 10.1411C121.445 10.3105 121.107 9.45791 121.751 9.27083L122.684 9.03972C123.243 8.87039 123.581 9.72292 122.937 9.9097L122.004 10.1411ZM125.699 9.20594C125.026 9.34866 124.857 8.46072 125.445 8.33546L126.377 8.10346C127.003 7.98682 127.21 8.88341 126.622 9.00858L125.699 9.20594ZM129.394 8.41874C128.805 8.54342 128.552 7.67303 129.186 7.52128C129.513 7.4846 129.812 7.40454 130.138 7.36787C130.726 7.24221 130.942 8.10416 130.317 8.22138C130.018 8.30103 129.692 8.3381 129.394 8.41874ZM133.136 7.75233C132.483 7.82647 132.388 6.95462 132.967 6.86399L133.919 6.71098C134.573 6.63694 134.659 7.54293 134.052 7.59058L133.136 7.75233ZM136.882 7.23478C136.265 7.31677 136.134 6.43706 136.75 6.35488L137.731 6.24544C138.31 6.15481 138.479 7.04285 137.825 7.11689L136.882 7.23478ZM140.675 6.83968C140.068 6.88596 139.936 6.00616 140.581 5.96794C140.908 5.93126 141.235 5.89468 141.553 5.89304C142.132 5.8029 142.264 6.6824 141.61 6.75605C141.283 6.79233 141.003 6.80241 140.675 6.83968ZM144.471 6.59217C143.797 6.58663 143.824 5.70655 144.423 5.69462L145.386 5.65357C146.022 5.65057 146.033 6.53919 145.397 6.54366L144.471 6.59217ZM148.276 6.45721C147.641 6.46128 147.63 5.57218 148.266 5.5686L149.22 5.56306C149.818 5.55133 149.866 6.44888 149.231 6.45207L148.276 6.45721ZM152.085 6.47159C151.485 6.48294 151.4 5.57744 152.083 5.54785L153.065 5.58618C153.731 5.62557 153.619 6.52439 153.038 6.46617L152.085 6.47159ZM155.873 6.55516C155.247 6.52382 155.312 5.65188 155.939 5.68332L156.875 5.74825C157.539 5.78784 157.474 6.66017 156.848 6.62882L155.873 6.55516ZM159.703 6.79592C159.077 6.76457 159.102 5.88382 159.768 5.92409L160.705 5.9892C161.332 6.02065 161.296 6.93605 160.631 6.89607L159.703 6.79592ZM26.1013 12.2541C24.8179 12.9237 25.1455 12.8868 22.8848 11.6352C20.8976 10.5564 21.973 10.5421 19.7919 11.1559C17.8332 11.6719 14.7683 12.0112 13.2678 12.447C13.4962 13.57 16.8496 17.8406 17.5139 19.4322C17.0937 19.5214 16.7669 19.5589 16.3095 19.6396C15.5909 19.8089 15.7414 19.8431 15.0979 19.254C13.6704 18.006 9.10371 13.9774 8.15151 13.3549C6.62049 13.5986 2.49611 14.5108 1.23798 14.1516C0.646401 13.9804 -0.285067 13.5846 0.0825043 12.9283C1.00771 11.3279 4.55131 11.1339 6.91299 10.7464C7.86545 10.5935 7.62272 10.6117 8.03356 9.78121C8.51001 8.85523 11.6786 2.3685 12.1059 2.09604C12.2451 2.01725 13.5706 1.80029 13.8134 1.78167C13.7658 2.43596 13.6712 3.11664 13.5387 3.7883L12.9121 7.7845C12.7602 8.37804 12.676 9.17187 12.6468 9.75619C13.7294 9.55825 14.8119 9.36031 15.9321 9.1713C21.5325 8.07631 20.2103 9.36597 22.0538 7.12385C23.0871 5.88067 23.2635 5.03407 24.7114 5.58366C23.7345 8.31764 24.1126 10.2512 26.1013 12.2541ZM25.8981 8.55024C25.2905 8.59691 25.3104 9.45099 25.9835 9.45585L26.9186 9.3727C27.4792 9.35204 27.5065 8.47117 26.8329 8.46622L25.8981 8.55024ZM118.834 49.5106C119.223 50.0061 119.928 49.4267 119.566 48.9753L119.263 48.6104C118.836 48.1066 118.132 48.6869 118.493 49.1379L118.834 49.5106ZM116.737 47.0037C117.136 47.4631 117.867 46.9274 117.507 46.4759L116.9 45.7472C116.501 45.2868 115.76 45.8575 116.158 46.3176L116.737 47.0037ZM114.347 44.2438C114.707 44.6954 115.477 44.1683 115.087 43.6731L114.472 42.9791C114.064 42.5548 113.294 43.0819 113.73 43.5505L114.347 44.2438ZM111.863 41.5373C112.299 42.0063 112.984 41.3489 112.567 40.9586L111.904 40.2907C111.468 39.8227 110.784 40.4801 111.2 40.8697L111.863 41.5373ZM109.278 38.9189C109.723 39.3527 110.398 38.73 109.991 38.3049L109.32 37.6721C108.875 37.2392 108.17 37.8182 108.616 38.2519L109.278 38.9189ZM106.638 36.3615C107.054 36.7519 107.758 36.1729 107.275 35.7306L106.604 35.0982C106.188 34.7081 105.484 35.2872 105.928 35.7212L106.638 36.3615ZM103.857 33.8841C104.387 34.2995 104.958 33.6166 104.542 33.2266L103.823 32.6199C103.333 32.2126 102.723 32.8876 103.177 33.2863L103.857 33.8841ZM101.05 31.5103C101.55 31.8828 102.123 31.199 101.66 30.8361L100.942 30.2297C100.441 29.8575 99.8316 30.5321 100.332 30.9048L101.05 31.5103ZM98.1047 29.2163C98.6042 29.5882 99.2141 28.9136 98.7222 28.5068L97.9865 27.9701C97.5238 27.6065 96.8865 28.2382 97.3767 28.6446L98.1047 29.2163ZM95.1314 27.0271C95.6779 27.3726 96.1833 26.6377 95.6746 26.2999L94.9007 25.7554C94.3914 25.4183 93.8488 26.1448 94.3576 26.4818L95.1314 27.0271ZM88.8708 22.9466C89.4643 23.2657 89.8662 22.4702 89.3766 22.2117L88.5478 21.7276C87.9547 21.4086 87.5528 22.2041 88.0424 22.4625L88.8708 22.9466ZM85.6123 21.0983C86.1305 21.4008 86.6077 20.6224 86.089 20.3203L85.2511 19.8716C84.6865 19.5952 84.2095 20.3745 84.774 20.65L85.6123 21.0983ZM82.2798 19.3824C82.7693 19.6413 83.3127 18.915 82.7193 18.5955L81.8731 18.1811C81.2329 17.8885 80.8971 18.7356 81.4336 18.9681L82.2798 19.3824ZM78.8833 17.7623C79.457 18.0033 79.8215 17.1985 79.2858 16.9662L78.3924 16.579C77.8186 16.3381 77.4159 17.1334 77.9897 17.3743L78.8833 17.7623ZM75.405 16.3078C75.9402 16.5404 76.3802 15.7532 75.7782 15.4688C75.4869 15.3656 75.1668 15.2193 74.8754 15.1165C74.3402 14.8843 73.9003 15.6708 74.5023 15.9552C74.7937 16.0579 75.1226 16.17 75.405 16.3078ZM71.861 14.9495C72.4813 15.164 72.7796 14.3083 72.1884 14.1372L71.3149 13.8278C70.695 13.6135 70.3965 14.4699 70.9878 14.6406L71.861 14.9495ZM68.2735 13.7663C68.8651 13.9371 69.1926 13.1248 68.5722 12.9103L67.652 12.6279C67.1074 12.4306 66.7337 13.2696 67.3914 13.4921L68.2735 13.7663ZM64.6591 12.6877C65.2885 12.8671 65.4738 11.9859 64.9113 11.8583L63.9814 11.6103C63.3533 11.4312 63.1299 12.3038 63.7301 12.4399L64.6591 12.6877ZM60.9621 11.7749C61.5622 11.9111 61.8233 11.047 61.1855 10.9023C60.8856 10.8343 60.5482 10.7577 60.2475 10.6895C59.6841 10.5617 59.3863 11.4174 60.0241 11.5621C60.362 11.6388 60.6623 11.7069 60.9621 11.7749ZM57.2292 11.0022C57.923 11.0855 58.0249 10.2224 57.4159 10.1209L56.5065 9.95166C55.8595 9.84152 55.7113 10.7316 56.3208 10.8328L57.2292 11.0022ZM53.5077 10.3425C54.1167 10.444 54.2653 9.55401 53.6562 9.45289L52.6999 9.30967C52.0913 9.20826 51.9432 10.0983 52.5521 10.1998L53.5077 10.3425ZM49.7507 9.82295C50.3216 9.91583 50.5081 9.03359 49.852 8.95887C49.5432 8.92588 49.1968 8.88396 48.8875 8.85127C48.3152 8.7585 48.1297 9.64014 48.7854 9.71476C49.0946 9.74824 49.4034 9.78123 49.7507 9.82295ZM45.9564 9.44238C46.621 9.48236 46.6109 8.59344 46.0211 8.57083L45.0563 8.46233C44.4203 8.46631 44.3932 9.34679 44.9824 9.37009L45.9564 9.44238ZM42.1275 9.2018C42.7548 9.23373 42.8286 8.32677 42.2012 8.29523L41.2189 8.25689C40.6288 8.2338 40.5639 9.10613 41.1917 9.13777L42.1275 9.2018ZM38.3557 9.04789C38.9365 9.10592 39.0107 8.19905 38.3456 8.15937L37.3911 8.1644C36.7171 8.15975 36.8033 9.06594 37.4019 9.05391L38.3557 9.04789ZM34.539 9.06952C35.1844 9.03061 35.1357 8.13335 34.4914 8.17167L33.5363 8.17739C32.9005 8.18059 32.9491 9.07824 33.5853 9.07514L34.539 9.06952ZM30.705 9.16012C31.3409 9.15654 31.3391 8.232 30.656 8.26238L29.7303 8.31098C29.1316 8.32301 29.1053 9.20368 29.7792 9.20873L30.705 9.16012Z" fill="white"/>
</svg>
