<svg width="100" height="106" viewBox="0 0 100 106" fill="none" xmlns="http://www.w3.org/2000/svg">
<path d="M49.6751 0.00229183C51.4109 0.00229183 53.1201 0.114917 54.7101 0.379917C56.2766 0.581708 57.822 0.923151 59.3277 1.40017C60.8294 1.85067 62.3178 2.43146 63.793 3.14254C65.2306 3.82492 66.708 4.65967 68.1854 5.56729C70.683 7.15729 73.1409 8.44254 75.6451 9.46942C80.5738 11.4466 85.7876 12.6209 91.088 12.9475C93.7689 13.1463 96.5448 13.2479 99.4156 13.2523V39.7523C99.4156 44.7829 98.773 49.5661 97.4877 54.102C96.2529 58.5819 94.4986 62.902 92.2606 66.9744C90.0322 71.0413 87.3951 74.8705 84.3901 78.4025C81.3409 82.0166 78.0377 85.4084 74.5056 88.552C70.9237 91.7011 67.1562 94.6324 63.2232 97.3302C59.2836 100.069 55.3218 102.593 51.338 104.903L49.748 105.85L48.158 104.903C44.0714 102.537 40.08 100.011 36.1932 97.3302C32.2392 94.6613 28.4698 91.7286 24.9109 88.552C21.381 85.4081 18.08 82.0163 15.033 78.4025C12.0382 74.8539 9.38937 71.0271 7.12274 66.9744C4.92496 62.8829 3.17256 58.5674 1.89561 54.102C0.610772 49.428 -0.0267548 44.5997 0.000860024 39.7523V13.2523C2.87169 13.2479 5.64978 13.1463 8.33511 12.9475C10.9833 12.7675 13.6142 12.3888 16.2056 11.8147C18.743 11.2449 21.2804 10.4897 23.778 9.46942C26.3691 8.42205 28.8538 7.12867 31.198 5.60704C34.113 3.71229 37.0677 2.31442 39.9827 1.39354C43.1223 0.432184 46.3919 -0.0371278 49.6751 0.00229183ZM92.7509 19.7647C87.7362 19.5192 82.7682 18.6808 77.9506 17.267C73.1603 15.8344 68.5968 13.7311 64.3959 11.0197C62.2162 9.59269 59.8511 8.47145 57.3667 7.68729C54.8836 6.9384 52.3018 6.56766 49.7082 6.58754C47.0954 6.57162 44.4945 6.94221 41.9901 7.68729C39.5028 8.44808 37.1411 9.57091 34.9809 11.0197C30.7711 13.7431 26.1962 15.8555 21.393 17.2935C16.6981 18.6583 11.7757 19.493 6.62586 19.7978V39.7854C6.62586 44.1712 7.19561 48.3847 8.33511 52.4259C9.497 56.4383 11.0966 60.3107 13.1051 63.9733C15.1385 67.6737 17.5353 71.1624 20.2601 74.3878C23.0227 77.6407 25.9709 80.6683 29.1509 83.5435C32.3309 86.4188 35.6632 89.082 39.148 91.5333C42.6681 93.989 46.1882 96.2348 49.7082 98.2709C53.312 96.1766 56.8243 93.9287 60.2354 91.5333C63.7473 89.0888 67.0977 86.42 70.2656 83.5435C73.4456 80.6683 76.4004 77.6407 79.163 74.3878C81.8878 71.1624 84.2846 67.6737 86.318 63.9733C88.3164 60.3147 89.8922 56.4407 91.0151 52.4259C92.1905 48.3161 92.7749 44.0599 92.7509 39.7854V19.7647Z" fill="white"/>
<path fill-rule="evenodd" clip-rule="evenodd" d="M74.3539 31.1996L71.4389 28.6953L68.7492 28.9272L39.8642 63.0327L30.0261 48.9877L27.3761 48.5372L24.3087 50.7301L23.8516 53.3801L36.4987 71.4398L37.9363 72.2348L40.9639 72.4203L42.5142 71.7446L74.5461 33.8827L74.3539 31.1996Z" fill="white"/>
</svg>
