<svg width="48" height="48" viewBox="0 0 48 48" fill="none" xmlns="http://www.w3.org/2000/svg">
<path d="M39 11L37.76 31.05C37.444 36.172 37.286 38.734 36 40.576C35.3651 41.4863 34.5478 42.2546 33.6 42.832C31.686 44 29.12 44 23.988 44C18.848 44 16.278 44 14.36 42.83C13.4118 42.2515 12.5944 41.4818 11.96 40.57C10.676 38.726 10.52 36.16 10.212 31.03L9 11M6 11H42M32.112 11L30.746 8.184C29.84 6.312 29.386 5.378 28.604 4.794C28.4303 4.66463 28.2463 4.54959 28.054 4.45C27.188 4 26.148 4 24.07 4C21.938 4 20.872 4 19.99 4.468C19.795 4.57242 19.6091 4.69284 19.434 4.828C18.644 5.434 18.202 6.404 17.318 8.342L16.106 11" stroke="#FF5D5D" stroke-width="2" stroke-linecap="round"/>
</svg>
