<svg width="15" height="15" viewBox="0 0 15 15" fill="none" xmlns="http://www.w3.org/2000/svg">
<path d="M11.5502 14.9615C10.932 14.9615 10.0636 14.7379 8.76316 14.0114C7.18186 13.1246 5.95875 12.3059 4.386 10.7373C2.86962 9.22186 2.1317 8.24071 1.09893 6.36139C-0.0678123 4.23947 0.131078 3.12721 0.353404 2.65183C0.618169 2.08367 1.00898 1.74384 1.51412 1.40655C1.80104 1.21857 2.10467 1.05742 2.42117 0.925162C2.45284 0.911543 2.48229 0.898558 2.50858 0.88684C2.66534 0.816215 2.90287 0.709486 3.20374 0.8235C3.40453 0.898875 3.58379 1.05311 3.86439 1.33023C4.43984 1.89776 5.22621 3.16173 5.51631 3.78247C5.71109 4.20083 5.83999 4.477 5.8403 4.78674C5.8403 5.14936 5.65788 5.42901 5.4365 5.73083C5.39502 5.78752 5.35385 5.84168 5.31394 5.89425C5.07293 6.21095 5.02004 6.30248 5.05488 6.4659C5.1255 6.79432 5.65218 7.77199 6.51773 8.63564C7.38329 9.49929 8.33276 9.99272 8.66245 10.063C8.83284 10.0994 8.92627 10.0443 9.25311 9.79478C9.29998 9.75899 9.34812 9.72194 9.39847 9.68488C9.73608 9.43374 10.0027 9.25606 10.3568 9.25606H10.3587C10.6669 9.25606 10.9307 9.38971 11.3677 9.61014C11.9378 9.89771 13.2398 10.6739 13.8108 11.25C14.0885 11.53 14.2434 11.7086 14.3191 11.9091C14.4331 12.2109 14.3258 12.4475 14.2558 12.6058C14.244 12.6321 14.2311 12.6609 14.2174 12.6929C14.0841 13.0089 13.922 13.3119 13.7332 13.5981C13.3965 14.1016 13.0555 14.4915 12.486 14.7566C12.1936 14.8949 11.8736 14.965 11.5502 14.9615Z" fill="black"/>
</svg>
